<svg xmlns="http://www.w3.org/2000/svg" xmlns:xlink="http://www.w3.org/1999/xlink" aria-hidden="true" role="img" width="31" height="31" preserveAspectRatio="xMidYMid meet" viewBox="0 0 36 36"><rect x="0" y="0" width="36" height="36" fill="none" stroke="none" /><path class="clr-i-outline clr-i-outline-path-1" d="M14 4H6a2 2 0 0 0-2 2v8a2 2 0 0 0 2 2h8a2 2 0 0 0 2-2V6a2 2 0 0 0-2-2zM6 14V6h8v8z" fill="currentColor"/><path class="clr-i-outline clr-i-outline-path-2" d="M30 4h-8a2 2 0 0 0-2 2v8a2 2 0 0 0 2 2h8a2 2 0 0 0 2-2V6a2 2 0 0 0-2-2zm-8 10V6h8v8z" fill="currentColor"/><path class="clr-i-outline clr-i-outline-path-3" d="M14 20H6a2 2 0 0 0-2 2v8a2 2 0 0 0 2 2h8a2 2 0 0 0 2-2v-8a2 2 0 0 0-2-2zM6 30v-8h8v8z" fill="currentColor"/><path class="clr-i-outline clr-i-outline-path-4" d="M30 20h-8a2 2 0 0 0-2 2v8a2 2 0 0 0 2 2h8a2 2 0 0 0 2-2v-8a2 2 0 0 0-2-2zm-8 10v-8h8v8z" fill="currentColor"/></svg>
